<?xml version="1.0" encoding="UTF-8" standalone="no"?>
<!DOCTYPE svg PUBLIC "-//W3C//DTD SVG 1.1//EN"
 "http://www.w3.org/Graphics/SVG/1.1/DTD/svg11.dtd">
<!-- Generated by graphviz version 2.43.0 (0)
 -->
<!-- Title: controllers_diagram Pages: 1 -->
<svg width="466pt" height="311pt"
 viewBox="0.00 0.00 466.00 311.00" xmlns="http://www.w3.org/2000/svg" xmlns:xlink="http://www.w3.org/1999/xlink">
<g id="graph0" class="graph" transform="scale(1 1) rotate(0) translate(4 307)">
<title>controllers_diagram</title>
<polygon fill="transparent" stroke="transparent" points="-4,4 -4,-307 462,-307 462,4 -4,4"/>
<!-- _diagram_info -->
<g id="node1" class="node">
<title>_diagram_info</title>
<text text-anchor="start" x="8" y="-159.6" font-family="Times,serif" font-size="13.00">Controllers diagram</text>
<text text-anchor="start" x="8" y="-145.6" font-family="Times,serif" font-size="13.00">Date: Aug 19 2020 &#45; 11:15</text>
<text text-anchor="start" x="8" y="-131.6" font-family="Times,serif" font-size="13.00">Migration version: 20200819170057</text>
<text text-anchor="start" x="8" y="-117.6" font-family="Times,serif" font-size="13.00">Generated by RailRoady 1.5.3</text>
<text text-anchor="start" x="8" y="-103.6" font-family="Times,serif" font-size="13.00">http://railroady.prestonlee.com</text>
</g>
<!-- Api::V1::TestsController -->
<g id="node2" class="node">
<title>Api::V1::TestsController</title>
<path fill="none" stroke="black" d="M220,-208.5C220,-208.5 383,-208.5 383,-208.5 389,-208.5 395,-214.5 395,-220.5 395,-220.5 395,-290.5 395,-290.5 395,-296.5 389,-302.5 383,-302.5 383,-302.5 220,-302.5 220,-302.5 214,-302.5 208,-296.5 208,-290.5 208,-290.5 208,-220.5 208,-220.5 208,-214.5 214,-208.5 220,-208.5"/>
<text text-anchor="middle" x="301.5" y="-287.3" font-family="Times,serif" font-size="14.00">Api::V1::TestsController</text>
<polyline fill="none" stroke="black" points="208,-279.5 395,-279.5 "/>
<text text-anchor="start" x="216" y="-264.3" font-family="Times,serif" font-size="14.00">index</text>
<polyline fill="none" stroke="black" points="208,-256.5 395,-256.5 "/>
<polyline fill="none" stroke="black" points="208,-232.5 395,-232.5 "/>
</g>
<!-- ApplicationController -->
<g id="node3" class="node">
<title>ApplicationController</title>
<path fill="none" stroke="black" d="M300,-0.5C300,-0.5 446,-0.5 446,-0.5 452,-0.5 458,-6.5 458,-12.5 458,-12.5 458,-83.5 458,-83.5 458,-89.5 452,-95.5 446,-95.5 446,-95.5 300,-95.5 300,-95.5 294,-95.5 288,-89.5 288,-83.5 288,-83.5 288,-12.5 288,-12.5 288,-6.5 294,-0.5 300,-0.5"/>
<text text-anchor="middle" x="373" y="-80.3" font-family="Times,serif" font-size="14.00">ApplicationController</text>
<polyline fill="none" stroke="black" points="288,-72.5 458,-72.5 "/>
<polyline fill="none" stroke="black" points="288,-48.5 458,-48.5 "/>
<polyline fill="none" stroke="black" points="288,-24.5 458,-24.5 "/>
</g>
</g>
</svg>
