<?xml version="1.0" encoding="UTF-8" standalone="no"?>
<!DOCTYPE svg PUBLIC "-//W3C//DTD SVG 1.1//EN"
 "http://www.w3.org/Graphics/SVG/1.1/DTD/svg11.dtd">
<!-- Generated by graphviz version 2.43.0 (0)
 -->
<!-- Title: models_diagram Pages: 1 -->
<svg width="5771pt" height="340pt"
 viewBox="0.00 0.00 5771.00 340.00" xmlns="http://www.w3.org/2000/svg" xmlns:xlink="http://www.w3.org/1999/xlink">
<g id="graph0" class="graph" transform="scale(1 1) rotate(0) translate(4 336)">
<title>models_diagram</title>
<polygon fill="transparent" stroke="transparent" points="-4,4 -4,-336 5767,-336 5767,4 -4,4"/>
<!-- _diagram_info -->
<g id="node1" class="node">
<title>_diagram_info</title>
<text text-anchor="start" x="8" y="-190.6" font-family="Times,serif" font-size="13.00">Models diagram</text>
<text text-anchor="start" x="8" y="-176.6" font-family="Times,serif" font-size="13.00">Date: Aug 17 2020 &#45; 23:02</text>
<text text-anchor="start" x="8" y="-162.6" font-family="Times,serif" font-size="13.00">Migration version: 20200818045042</text>
<text text-anchor="start" x="8" y="-148.6" font-family="Times,serif" font-size="13.00">Generated by RailRoady 1.5.3</text>
<text text-anchor="start" x="8" y="-134.6" font-family="Times,serif" font-size="13.00">http://railroady.prestonlee.com</text>
</g>
<!-- AbilityScore -->
<g id="node2" class="node">
<title>AbilityScore</title>
<path fill="none" stroke="black" d="M289,-75.5C289,-75.5 600,-75.5 600,-75.5 606,-75.5 612,-81.5 612,-87.5 612,-87.5 612,-244.5 612,-244.5 612,-250.5 606,-256.5 600,-256.5 600,-256.5 289,-256.5 289,-256.5 283,-256.5 277,-250.5 277,-244.5 277,-244.5 277,-87.5 277,-87.5 277,-81.5 283,-75.5 289,-75.5"/>
<text text-anchor="middle" x="444.5" y="-241.3" font-family="Times,serif" font-size="14.00">AbilityScore</text>
<polyline fill="none" stroke="black" points="277,-233.5 612,-233.5 "/>
<text text-anchor="start" x="285" y="-218.3" font-family="Times,serif" font-size="14.00">id :bigint</text>
<text text-anchor="start" x="285" y="-203.3" font-family="Times,serif" font-size="14.00">external_id :character varying</text>
<text text-anchor="start" x="285" y="-188.3" font-family="Times,serif" font-size="14.00">external_index :character varying</text>
<text text-anchor="start" x="285" y="-173.3" font-family="Times,serif" font-size="14.00">name :character varying</text>
<text text-anchor="start" x="285" y="-158.3" font-family="Times,serif" font-size="14.00">full_name :character varying</text>
<text text-anchor="start" x="285" y="-143.3" font-family="Times,serif" font-size="14.00">desc :text</text>
<text text-anchor="start" x="285" y="-128.3" font-family="Times,serif" font-size="14.00">skills :text</text>
<text text-anchor="start" x="285" y="-113.3" font-family="Times,serif" font-size="14.00">external_url :character varying</text>
<text text-anchor="start" x="285" y="-98.3" font-family="Times,serif" font-size="14.00">created_at :timestamp(6) without time zone</text>
<text text-anchor="start" x="285" y="-83.3" font-family="Times,serif" font-size="14.00">updated_at :timestamp(6) without time zone</text>
</g>
<!-- ApplicationRecord -->
<g id="node3" class="node">
<title>ApplicationRecord</title>
<ellipse fill="none" stroke="black" cx="725.5" cy="-166" rx="95.58" ry="18"/>
<text text-anchor="middle" x="725.5" y="-162.3" font-family="Times,serif" font-size="14.00">ApplicationRecord</text>
</g>
<!-- Armor -->
<g id="node4" class="node">
<title>Armor</title>
<path fill="none" stroke="black" d="M851,-45.5C851,-45.5 1162,-45.5 1162,-45.5 1168,-45.5 1174,-51.5 1174,-57.5 1174,-57.5 1174,-274.5 1174,-274.5 1174,-280.5 1168,-286.5 1162,-286.5 1162,-286.5 851,-286.5 851,-286.5 845,-286.5 839,-280.5 839,-274.5 839,-274.5 839,-57.5 839,-57.5 839,-51.5 845,-45.5 851,-45.5"/>
<text text-anchor="middle" x="1006.5" y="-271.3" font-family="Times,serif" font-size="14.00">Armor</text>
<polyline fill="none" stroke="black" points="839,-263.5 1174,-263.5 "/>
<text text-anchor="start" x="847" y="-248.3" font-family="Times,serif" font-size="14.00">id :bigint</text>
<text text-anchor="start" x="847" y="-233.3" font-family="Times,serif" font-size="14.00">external_id :character varying</text>
<text text-anchor="start" x="847" y="-218.3" font-family="Times,serif" font-size="14.00">external_index :character varying</text>
<text text-anchor="start" x="847" y="-203.3" font-family="Times,serif" font-size="14.00">name :character varying</text>
<text text-anchor="start" x="847" y="-188.3" font-family="Times,serif" font-size="14.00">equipment_category :character varying</text>
<text text-anchor="start" x="847" y="-173.3" font-family="Times,serif" font-size="14.00">armor_category :character varying</text>
<text text-anchor="start" x="847" y="-158.3" font-family="Times,serif" font-size="14.00">armor_class :character varying</text>
<text text-anchor="start" x="847" y="-143.3" font-family="Times,serif" font-size="14.00">str_minimum :character varying</text>
<text text-anchor="start" x="847" y="-128.3" font-family="Times,serif" font-size="14.00">stealth_disadvantage :boolean</text>
<text text-anchor="start" x="847" y="-113.3" font-family="Times,serif" font-size="14.00">cost :character varying</text>
<text text-anchor="start" x="847" y="-98.3" font-family="Times,serif" font-size="14.00">weight :integer</text>
<text text-anchor="start" x="847" y="-83.3" font-family="Times,serif" font-size="14.00">url :character varying</text>
<text text-anchor="start" x="847" y="-68.3" font-family="Times,serif" font-size="14.00">created_at :timestamp(6) without time zone</text>
<text text-anchor="start" x="847" y="-53.3" font-family="Times,serif" font-size="14.00">updated_at :timestamp(6) without time zone</text>
</g>
<!-- Character -->
<g id="node5" class="node">
<title>Character</title>
<path fill="none" stroke="black" d="M1204,-98C1204,-98 1515,-98 1515,-98 1521,-98 1527,-104 1527,-110 1527,-110 1527,-222 1527,-222 1527,-228 1521,-234 1515,-234 1515,-234 1204,-234 1204,-234 1198,-234 1192,-228 1192,-222 1192,-222 1192,-110 1192,-110 1192,-104 1198,-98 1204,-98"/>
<text text-anchor="middle" x="1359.5" y="-218.8" font-family="Times,serif" font-size="14.00">Character</text>
<polyline fill="none" stroke="black" points="1192,-211 1527,-211 "/>
<text text-anchor="start" x="1200" y="-195.8" font-family="Times,serif" font-size="14.00">id :bigint</text>
<text text-anchor="start" x="1200" y="-180.8" font-family="Times,serif" font-size="14.00">name :character varying</text>
<text text-anchor="start" x="1200" y="-165.8" font-family="Times,serif" font-size="14.00">backstory :character varying</text>
<text text-anchor="start" x="1200" y="-150.8" font-family="Times,serif" font-size="14.00">level :integer</text>
<text text-anchor="start" x="1200" y="-135.8" font-family="Times,serif" font-size="14.00">experience :integer</text>
<text text-anchor="start" x="1200" y="-120.8" font-family="Times,serif" font-size="14.00">created_at :timestamp(6) without time zone</text>
<text text-anchor="start" x="1200" y="-105.8" font-family="Times,serif" font-size="14.00">updated_at :timestamp(6) without time zone</text>
</g>
<!-- CharClass -->
<g id="node6" class="node">
<title>CharClass</title>
<path fill="none" stroke="black" d="M1557,-45.5C1557,-45.5 1868,-45.5 1868,-45.5 1874,-45.5 1880,-51.5 1880,-57.5 1880,-57.5 1880,-274.5 1880,-274.5 1880,-280.5 1874,-286.5 1868,-286.5 1868,-286.5 1557,-286.5 1557,-286.5 1551,-286.5 1545,-280.5 1545,-274.5 1545,-274.5 1545,-57.5 1545,-57.5 1545,-51.5 1551,-45.5 1557,-45.5"/>
<text text-anchor="middle" x="1712.5" y="-271.3" font-family="Times,serif" font-size="14.00">CharClass</text>
<polyline fill="none" stroke="black" points="1545,-263.5 1880,-263.5 "/>
<text text-anchor="start" x="1553" y="-248.3" font-family="Times,serif" font-size="14.00">id :bigint</text>
<text text-anchor="start" x="1553" y="-233.3" font-family="Times,serif" font-size="14.00">external_id :character varying</text>
<text text-anchor="start" x="1553" y="-218.3" font-family="Times,serif" font-size="14.00">external_index :character varying</text>
<text text-anchor="start" x="1553" y="-203.3" font-family="Times,serif" font-size="14.00">name :character varying</text>
<text text-anchor="start" x="1553" y="-188.3" font-family="Times,serif" font-size="14.00">hit_die :character varying</text>
<text text-anchor="start" x="1553" y="-173.3" font-family="Times,serif" font-size="14.00">proficiency_choices :character varying</text>
<text text-anchor="start" x="1553" y="-158.3" font-family="Times,serif" font-size="14.00">proficiency_id :bigint</text>
<text text-anchor="start" x="1553" y="-143.3" font-family="Times,serif" font-size="14.00">saving_throws :text</text>
<text text-anchor="start" x="1553" y="-128.3" font-family="Times,serif" font-size="14.00">starting_equipment :text</text>
<text text-anchor="start" x="1553" y="-113.3" font-family="Times,serif" font-size="14.00">class_levels :text</text>
<text text-anchor="start" x="1553" y="-98.3" font-family="Times,serif" font-size="14.00">spellcasting :text</text>
<text text-anchor="start" x="1553" y="-83.3" font-family="Times,serif" font-size="14.00">url :character varying</text>
<text text-anchor="start" x="1553" y="-68.3" font-family="Times,serif" font-size="14.00">created_at :timestamp(6) without time zone</text>
<text text-anchor="start" x="1553" y="-53.3" font-family="Times,serif" font-size="14.00">updated_at :timestamp(6) without time zone</text>
</g>
<!-- Feature -->
<g id="node7" class="node">
<title>Feature</title>
<path fill="none" stroke="black" d="M1910,-68C1910,-68 2221,-68 2221,-68 2227,-68 2233,-74 2233,-80 2233,-80 2233,-252 2233,-252 2233,-258 2227,-264 2221,-264 2221,-264 1910,-264 1910,-264 1904,-264 1898,-258 1898,-252 1898,-252 1898,-80 1898,-80 1898,-74 1904,-68 1910,-68"/>
<text text-anchor="middle" x="2065.5" y="-248.8" font-family="Times,serif" font-size="14.00">Feature</text>
<polyline fill="none" stroke="black" points="1898,-241 2233,-241 "/>
<text text-anchor="start" x="1906" y="-225.8" font-family="Times,serif" font-size="14.00">id :bigint</text>
<text text-anchor="start" x="1906" y="-210.8" font-family="Times,serif" font-size="14.00">external_id :character varying</text>
<text text-anchor="start" x="1906" y="-195.8" font-family="Times,serif" font-size="14.00">external_index :character varying</text>
<text text-anchor="start" x="1906" y="-180.8" font-family="Times,serif" font-size="14.00">name :character varying</text>
<text text-anchor="start" x="1906" y="-165.8" font-family="Times,serif" font-size="14.00">level :character varying</text>
<text text-anchor="start" x="1906" y="-150.8" font-family="Times,serif" font-size="14.00">char_class_id :bigint</text>
<text text-anchor="start" x="1906" y="-135.8" font-family="Times,serif" font-size="14.00">sub_char_class_id :bigint</text>
<text text-anchor="start" x="1906" y="-120.8" font-family="Times,serif" font-size="14.00">desc :text</text>
<text text-anchor="start" x="1906" y="-105.8" font-family="Times,serif" font-size="14.00">url :character varying</text>
<text text-anchor="start" x="1906" y="-90.8" font-family="Times,serif" font-size="14.00">created_at :timestamp(6) without time zone</text>
<text text-anchor="start" x="1906" y="-75.8" font-family="Times,serif" font-size="14.00">updated_at :timestamp(6) without time zone</text>
</g>
<!-- Language -->
<g id="node8" class="node">
<title>Language</title>
<path fill="none" stroke="black" d="M2263,-75.5C2263,-75.5 2574,-75.5 2574,-75.5 2580,-75.5 2586,-81.5 2586,-87.5 2586,-87.5 2586,-244.5 2586,-244.5 2586,-250.5 2580,-256.5 2574,-256.5 2574,-256.5 2263,-256.5 2263,-256.5 2257,-256.5 2251,-250.5 2251,-244.5 2251,-244.5 2251,-87.5 2251,-87.5 2251,-81.5 2257,-75.5 2263,-75.5"/>
<text text-anchor="middle" x="2418.5" y="-241.3" font-family="Times,serif" font-size="14.00">Language</text>
<polyline fill="none" stroke="black" points="2251,-233.5 2586,-233.5 "/>
<text text-anchor="start" x="2259" y="-218.3" font-family="Times,serif" font-size="14.00">id :bigint</text>
<text text-anchor="start" x="2259" y="-203.3" font-family="Times,serif" font-size="14.00">external_id :character varying</text>
<text text-anchor="start" x="2259" y="-188.3" font-family="Times,serif" font-size="14.00">external_index :character varying</text>
<text text-anchor="start" x="2259" y="-173.3" font-family="Times,serif" font-size="14.00">name :character varying</text>
<text text-anchor="start" x="2259" y="-158.3" font-family="Times,serif" font-size="14.00">type :character varying</text>
<text text-anchor="start" x="2259" y="-143.3" font-family="Times,serif" font-size="14.00">typical_speakers :text</text>
<text text-anchor="start" x="2259" y="-128.3" font-family="Times,serif" font-size="14.00">script :character varying</text>
<text text-anchor="start" x="2259" y="-113.3" font-family="Times,serif" font-size="14.00">url :character varying</text>
<text text-anchor="start" x="2259" y="-98.3" font-family="Times,serif" font-size="14.00">created_at :timestamp(6) without time zone</text>
<text text-anchor="start" x="2259" y="-83.3" font-family="Times,serif" font-size="14.00">updated_at :timestamp(6) without time zone</text>
</g>
<!-- MagicSchool -->
<g id="node9" class="node">
<title>MagicSchool</title>
<path fill="none" stroke="black" d="M2616,-90.5C2616,-90.5 2927,-90.5 2927,-90.5 2933,-90.5 2939,-96.5 2939,-102.5 2939,-102.5 2939,-229.5 2939,-229.5 2939,-235.5 2933,-241.5 2927,-241.5 2927,-241.5 2616,-241.5 2616,-241.5 2610,-241.5 2604,-235.5 2604,-229.5 2604,-229.5 2604,-102.5 2604,-102.5 2604,-96.5 2610,-90.5 2616,-90.5"/>
<text text-anchor="middle" x="2771.5" y="-226.3" font-family="Times,serif" font-size="14.00">MagicSchool</text>
<polyline fill="none" stroke="black" points="2604,-218.5 2939,-218.5 "/>
<text text-anchor="start" x="2612" y="-203.3" font-family="Times,serif" font-size="14.00">id :bigint</text>
<text text-anchor="start" x="2612" y="-188.3" font-family="Times,serif" font-size="14.00">external_id :character varying</text>
<text text-anchor="start" x="2612" y="-173.3" font-family="Times,serif" font-size="14.00">external_index :character varying</text>
<text text-anchor="start" x="2612" y="-158.3" font-family="Times,serif" font-size="14.00">name :character varying</text>
<text text-anchor="start" x="2612" y="-143.3" font-family="Times,serif" font-size="14.00">desc :character varying</text>
<text text-anchor="start" x="2612" y="-128.3" font-family="Times,serif" font-size="14.00">url :character varying</text>
<text text-anchor="start" x="2612" y="-113.3" font-family="Times,serif" font-size="14.00">created_at :timestamp(6) without time zone</text>
<text text-anchor="start" x="2612" y="-98.3" font-family="Times,serif" font-size="14.00">updated_at :timestamp(6) without time zone</text>
</g>
<!-- Proficiency -->
<g id="node10" class="node">
<title>Proficiency</title>
<path fill="none" stroke="black" d="M2969,-75.5C2969,-75.5 3280,-75.5 3280,-75.5 3286,-75.5 3292,-81.5 3292,-87.5 3292,-87.5 3292,-244.5 3292,-244.5 3292,-250.5 3286,-256.5 3280,-256.5 3280,-256.5 2969,-256.5 2969,-256.5 2963,-256.5 2957,-250.5 2957,-244.5 2957,-244.5 2957,-87.5 2957,-87.5 2957,-81.5 2963,-75.5 2969,-75.5"/>
<text text-anchor="middle" x="3124.5" y="-241.3" font-family="Times,serif" font-size="14.00">Proficiency</text>
<polyline fill="none" stroke="black" points="2957,-233.5 3292,-233.5 "/>
<text text-anchor="start" x="2965" y="-218.3" font-family="Times,serif" font-size="14.00">id :bigint</text>
<text text-anchor="start" x="2965" y="-203.3" font-family="Times,serif" font-size="14.00">external_id :character varying</text>
<text text-anchor="start" x="2965" y="-188.3" font-family="Times,serif" font-size="14.00">external_index :character varying</text>
<text text-anchor="start" x="2965" y="-173.3" font-family="Times,serif" font-size="14.00">type :character varying</text>
<text text-anchor="start" x="2965" y="-158.3" font-family="Times,serif" font-size="14.00">name :character varying</text>
<text text-anchor="start" x="2965" y="-143.3" font-family="Times,serif" font-size="14.00">classes :text</text>
<text text-anchor="start" x="2965" y="-128.3" font-family="Times,serif" font-size="14.00">races :text</text>
<text text-anchor="start" x="2965" y="-113.3" font-family="Times,serif" font-size="14.00">url :character varying</text>
<text text-anchor="start" x="2965" y="-98.3" font-family="Times,serif" font-size="14.00">created_at :timestamp(6) without time zone</text>
<text text-anchor="start" x="2965" y="-83.3" font-family="Times,serif" font-size="14.00">updated_at :timestamp(6) without time zone</text>
</g>
<!-- Race -->
<g id="node11" class="node">
<title>Race</title>
<path fill="none" stroke="black" d="M3322,-15.5C3322,-15.5 3633,-15.5 3633,-15.5 3639,-15.5 3645,-21.5 3645,-27.5 3645,-27.5 3645,-304.5 3645,-304.5 3645,-310.5 3639,-316.5 3633,-316.5 3633,-316.5 3322,-316.5 3322,-316.5 3316,-316.5 3310,-310.5 3310,-304.5 3310,-304.5 3310,-27.5 3310,-27.5 3310,-21.5 3316,-15.5 3322,-15.5"/>
<text text-anchor="middle" x="3477.5" y="-301.3" font-family="Times,serif" font-size="14.00">Race</text>
<polyline fill="none" stroke="black" points="3310,-293.5 3645,-293.5 "/>
<text text-anchor="start" x="3318" y="-278.3" font-family="Times,serif" font-size="14.00">id :bigint</text>
<text text-anchor="start" x="3318" y="-263.3" font-family="Times,serif" font-size="14.00">external_id :character varying</text>
<text text-anchor="start" x="3318" y="-248.3" font-family="Times,serif" font-size="14.00">external_index :character varying</text>
<text text-anchor="start" x="3318" y="-233.3" font-family="Times,serif" font-size="14.00">name :character varying</text>
<text text-anchor="start" x="3318" y="-218.3" font-family="Times,serif" font-size="14.00">speed :integer</text>
<text text-anchor="start" x="3318" y="-203.3" font-family="Times,serif" font-size="14.00">ability_bonuses :text</text>
<text text-anchor="start" x="3318" y="-188.3" font-family="Times,serif" font-size="14.00">alignment :text</text>
<text text-anchor="start" x="3318" y="-173.3" font-family="Times,serif" font-size="14.00">age :character varying</text>
<text text-anchor="start" x="3318" y="-158.3" font-family="Times,serif" font-size="14.00">size :character varying</text>
<text text-anchor="start" x="3318" y="-143.3" font-family="Times,serif" font-size="14.00">size_description :character varying</text>
<text text-anchor="start" x="3318" y="-128.3" font-family="Times,serif" font-size="14.00">proficiency_id :bigint</text>
<text text-anchor="start" x="3318" y="-113.3" font-family="Times,serif" font-size="14.00">language_id :bigint</text>
<text text-anchor="start" x="3318" y="-98.3" font-family="Times,serif" font-size="14.00">language_desc :text</text>
<text text-anchor="start" x="3318" y="-83.3" font-family="Times,serif" font-size="14.00">traits :text</text>
<text text-anchor="start" x="3318" y="-68.3" font-family="Times,serif" font-size="14.00">subraces :text</text>
<text text-anchor="start" x="3318" y="-53.3" font-family="Times,serif" font-size="14.00">url :character varying</text>
<text text-anchor="start" x="3318" y="-38.3" font-family="Times,serif" font-size="14.00">created_at :timestamp(6) without time zone</text>
<text text-anchor="start" x="3318" y="-23.3" font-family="Times,serif" font-size="14.00">updated_at :timestamp(6) without time zone</text>
</g>
<!-- Skill -->
<g id="node12" class="node">
<title>Skill</title>
<path fill="none" stroke="black" d="M3675,-83C3675,-83 3986,-83 3986,-83 3992,-83 3998,-89 3998,-95 3998,-95 3998,-237 3998,-237 3998,-243 3992,-249 3986,-249 3986,-249 3675,-249 3675,-249 3669,-249 3663,-243 3663,-237 3663,-237 3663,-95 3663,-95 3663,-89 3669,-83 3675,-83"/>
<text text-anchor="middle" x="3830.5" y="-233.8" font-family="Times,serif" font-size="14.00">Skill</text>
<polyline fill="none" stroke="black" points="3663,-226 3998,-226 "/>
<text text-anchor="start" x="3671" y="-210.8" font-family="Times,serif" font-size="14.00">id :bigint</text>
<text text-anchor="start" x="3671" y="-195.8" font-family="Times,serif" font-size="14.00">external_id :character varying</text>
<text text-anchor="start" x="3671" y="-180.8" font-family="Times,serif" font-size="14.00">external_index :character varying</text>
<text text-anchor="start" x="3671" y="-165.8" font-family="Times,serif" font-size="14.00">name :character varying</text>
<text text-anchor="start" x="3671" y="-150.8" font-family="Times,serif" font-size="14.00">desc :text</text>
<text text-anchor="start" x="3671" y="-135.8" font-family="Times,serif" font-size="14.00">ability_score :text</text>
<text text-anchor="start" x="3671" y="-120.8" font-family="Times,serif" font-size="14.00">url :character varying</text>
<text text-anchor="start" x="3671" y="-105.8" font-family="Times,serif" font-size="14.00">created_at :timestamp(6) without time zone</text>
<text text-anchor="start" x="3671" y="-90.8" font-family="Times,serif" font-size="14.00">updated_at :timestamp(6) without time zone</text>
</g>
<!-- Spell -->
<g id="node13" class="node">
<title>Spell</title>
<path fill="none" stroke="black" d="M4028,-0.5C4028,-0.5 4339,-0.5 4339,-0.5 4345,-0.5 4351,-6.5 4351,-12.5 4351,-12.5 4351,-319.5 4351,-319.5 4351,-325.5 4345,-331.5 4339,-331.5 4339,-331.5 4028,-331.5 4028,-331.5 4022,-331.5 4016,-325.5 4016,-319.5 4016,-319.5 4016,-12.5 4016,-12.5 4016,-6.5 4022,-0.5 4028,-0.5"/>
<text text-anchor="middle" x="4183.5" y="-316.3" font-family="Times,serif" font-size="14.00">Spell</text>
<polyline fill="none" stroke="black" points="4016,-308.5 4351,-308.5 "/>
<text text-anchor="start" x="4024" y="-293.3" font-family="Times,serif" font-size="14.00">id :bigint</text>
<text text-anchor="start" x="4024" y="-278.3" font-family="Times,serif" font-size="14.00">external_id :character varying</text>
<text text-anchor="start" x="4024" y="-263.3" font-family="Times,serif" font-size="14.00">external_index :character varying</text>
<text text-anchor="start" x="4024" y="-248.3" font-family="Times,serif" font-size="14.00">name :character varying</text>
<text text-anchor="start" x="4024" y="-233.3" font-family="Times,serif" font-size="14.00">desc :text</text>
<text text-anchor="start" x="4024" y="-218.3" font-family="Times,serif" font-size="14.00">higher_level :text</text>
<text text-anchor="start" x="4024" y="-203.3" font-family="Times,serif" font-size="14.00">range :character varying</text>
<text text-anchor="start" x="4024" y="-188.3" font-family="Times,serif" font-size="14.00">components :text</text>
<text text-anchor="start" x="4024" y="-173.3" font-family="Times,serif" font-size="14.00">material :character varying</text>
<text text-anchor="start" x="4024" y="-158.3" font-family="Times,serif" font-size="14.00">ritual :boolean</text>
<text text-anchor="start" x="4024" y="-143.3" font-family="Times,serif" font-size="14.00">duration :character varying</text>
<text text-anchor="start" x="4024" y="-128.3" font-family="Times,serif" font-size="14.00">concentration :boolean</text>
<text text-anchor="start" x="4024" y="-113.3" font-family="Times,serif" font-size="14.00">casting_time :character varying</text>
<text text-anchor="start" x="4024" y="-98.3" font-family="Times,serif" font-size="14.00">level :integer</text>
<text text-anchor="start" x="4024" y="-83.3" font-family="Times,serif" font-size="14.00">school :character varying</text>
<text text-anchor="start" x="4024" y="-68.3" font-family="Times,serif" font-size="14.00">char_class_id :bigint</text>
<text text-anchor="start" x="4024" y="-53.3" font-family="Times,serif" font-size="14.00">sub_char_class_id :bigint</text>
<text text-anchor="start" x="4024" y="-38.3" font-family="Times,serif" font-size="14.00">url :character varying</text>
<text text-anchor="start" x="4024" y="-23.3" font-family="Times,serif" font-size="14.00">created_at :timestamp(6) without time zone</text>
<text text-anchor="start" x="4024" y="-8.3" font-family="Times,serif" font-size="14.00">updated_at :timestamp(6) without time zone</text>
</g>
<!-- Subrace -->
<g id="node14" class="node">
<title>Subrace</title>
<path fill="none" stroke="black" d="M4381,-53C4381,-53 4692,-53 4692,-53 4698,-53 4704,-59 4704,-65 4704,-65 4704,-267 4704,-267 4704,-273 4698,-279 4692,-279 4692,-279 4381,-279 4381,-279 4375,-279 4369,-273 4369,-267 4369,-267 4369,-65 4369,-65 4369,-59 4375,-53 4381,-53"/>
<text text-anchor="middle" x="4536.5" y="-263.8" font-family="Times,serif" font-size="14.00">Subrace</text>
<polyline fill="none" stroke="black" points="4369,-256 4704,-256 "/>
<text text-anchor="start" x="4377" y="-240.8" font-family="Times,serif" font-size="14.00">id :bigint</text>
<text text-anchor="start" x="4377" y="-225.8" font-family="Times,serif" font-size="14.00">external_id :character varying</text>
<text text-anchor="start" x="4377" y="-210.8" font-family="Times,serif" font-size="14.00">external_index :character varying</text>
<text text-anchor="start" x="4377" y="-195.8" font-family="Times,serif" font-size="14.00">name :character varying</text>
<text text-anchor="start" x="4377" y="-180.8" font-family="Times,serif" font-size="14.00">race_id :bigint</text>
<text text-anchor="start" x="4377" y="-165.8" font-family="Times,serif" font-size="14.00">desc :character varying</text>
<text text-anchor="start" x="4377" y="-150.8" font-family="Times,serif" font-size="14.00">ability_bonus :text</text>
<text text-anchor="start" x="4377" y="-135.8" font-family="Times,serif" font-size="14.00">proficiency_id :bigint</text>
<text text-anchor="start" x="4377" y="-120.8" font-family="Times,serif" font-size="14.00">language_id :bigint</text>
<text text-anchor="start" x="4377" y="-105.8" font-family="Times,serif" font-size="14.00">trait_id :bigint</text>
<text text-anchor="start" x="4377" y="-90.8" font-family="Times,serif" font-size="14.00">url :character varying</text>
<text text-anchor="start" x="4377" y="-75.8" font-family="Times,serif" font-size="14.00">created_at :timestamp(6) without time zone</text>
<text text-anchor="start" x="4377" y="-60.8" font-family="Times,serif" font-size="14.00">updated_at :timestamp(6) without time zone</text>
</g>
<!-- SubCharClass -->
<g id="node15" class="node">
<title>SubCharClass</title>
<path fill="none" stroke="black" d="M4734,-83C4734,-83 5045,-83 5045,-83 5051,-83 5057,-89 5057,-95 5057,-95 5057,-237 5057,-237 5057,-243 5051,-249 5045,-249 5045,-249 4734,-249 4734,-249 4728,-249 4722,-243 4722,-237 4722,-237 4722,-95 4722,-95 4722,-89 4728,-83 4734,-83"/>
<text text-anchor="middle" x="4889.5" y="-233.8" font-family="Times,serif" font-size="14.00">SubCharClass</text>
<polyline fill="none" stroke="black" points="4722,-226 5057,-226 "/>
<text text-anchor="start" x="4730" y="-210.8" font-family="Times,serif" font-size="14.00">id :bigint</text>
<text text-anchor="start" x="4730" y="-195.8" font-family="Times,serif" font-size="14.00">external_id :character varying</text>
<text text-anchor="start" x="4730" y="-180.8" font-family="Times,serif" font-size="14.00">external_index :character varying</text>
<text text-anchor="start" x="4730" y="-165.8" font-family="Times,serif" font-size="14.00">char_class_id :bigint</text>
<text text-anchor="start" x="4730" y="-150.8" font-family="Times,serif" font-size="14.00">name :character varying</text>
<text text-anchor="start" x="4730" y="-135.8" font-family="Times,serif" font-size="14.00">sub_char_class_flavor :character varying</text>
<text text-anchor="start" x="4730" y="-120.8" font-family="Times,serif" font-size="14.00">desc :text</text>
<text text-anchor="start" x="4730" y="-105.8" font-family="Times,serif" font-size="14.00">created_at :timestamp(6) without time zone</text>
<text text-anchor="start" x="4730" y="-90.8" font-family="Times,serif" font-size="14.00">updated_at :timestamp(6) without time zone</text>
</g>
<!-- Trait -->
<g id="node16" class="node">
<title>Trait</title>
<path fill="none" stroke="black" d="M5087,-75.5C5087,-75.5 5398,-75.5 5398,-75.5 5404,-75.5 5410,-81.5 5410,-87.5 5410,-87.5 5410,-244.5 5410,-244.5 5410,-250.5 5404,-256.5 5398,-256.5 5398,-256.5 5087,-256.5 5087,-256.5 5081,-256.5 5075,-250.5 5075,-244.5 5075,-244.5 5075,-87.5 5075,-87.5 5075,-81.5 5081,-75.5 5087,-75.5"/>
<text text-anchor="middle" x="5242.5" y="-241.3" font-family="Times,serif" font-size="14.00">Trait</text>
<polyline fill="none" stroke="black" points="5075,-233.5 5410,-233.5 "/>
<text text-anchor="start" x="5083" y="-218.3" font-family="Times,serif" font-size="14.00">id :bigint</text>
<text text-anchor="start" x="5083" y="-203.3" font-family="Times,serif" font-size="14.00">external_id :character varying</text>
<text text-anchor="start" x="5083" y="-188.3" font-family="Times,serif" font-size="14.00">external_index :character varying</text>
<text text-anchor="start" x="5083" y="-173.3" font-family="Times,serif" font-size="14.00">race_id :bigint</text>
<text text-anchor="start" x="5083" y="-158.3" font-family="Times,serif" font-size="14.00">subrace :text</text>
<text text-anchor="start" x="5083" y="-143.3" font-family="Times,serif" font-size="14.00">name :character varying</text>
<text text-anchor="start" x="5083" y="-128.3" font-family="Times,serif" font-size="14.00">desc :text</text>
<text text-anchor="start" x="5083" y="-113.3" font-family="Times,serif" font-size="14.00">url :character varying</text>
<text text-anchor="start" x="5083" y="-98.3" font-family="Times,serif" font-size="14.00">created_at :timestamp(6) without time zone</text>
<text text-anchor="start" x="5083" y="-83.3" font-family="Times,serif" font-size="14.00">updated_at :timestamp(6) without time zone</text>
</g>
<!-- Weapon -->
<g id="node17" class="node">
<title>Weapon</title>
<path fill="none" stroke="black" d="M5440,-38C5440,-38 5751,-38 5751,-38 5757,-38 5763,-44 5763,-50 5763,-50 5763,-282 5763,-282 5763,-288 5757,-294 5751,-294 5751,-294 5440,-294 5440,-294 5434,-294 5428,-288 5428,-282 5428,-282 5428,-50 5428,-50 5428,-44 5434,-38 5440,-38"/>
<text text-anchor="middle" x="5595.5" y="-278.8" font-family="Times,serif" font-size="14.00">Weapon</text>
<polyline fill="none" stroke="black" points="5428,-271 5763,-271 "/>
<text text-anchor="start" x="5436" y="-255.8" font-family="Times,serif" font-size="14.00">id :bigint</text>
<text text-anchor="start" x="5436" y="-240.8" font-family="Times,serif" font-size="14.00">external_id :character varying</text>
<text text-anchor="start" x="5436" y="-225.8" font-family="Times,serif" font-size="14.00">external_index :character varying</text>
<text text-anchor="start" x="5436" y="-210.8" font-family="Times,serif" font-size="14.00">name :character varying</text>
<text text-anchor="start" x="5436" y="-195.8" font-family="Times,serif" font-size="14.00">equipment_category :character varying</text>
<text text-anchor="start" x="5436" y="-180.8" font-family="Times,serif" font-size="14.00">weapon_category :character varying</text>
<text text-anchor="start" x="5436" y="-165.8" font-family="Times,serif" font-size="14.00">weapon_range :character varying</text>
<text text-anchor="start" x="5436" y="-150.8" font-family="Times,serif" font-size="14.00">category_range :character varying</text>
<text text-anchor="start" x="5436" y="-135.8" font-family="Times,serif" font-size="14.00">cost :character varying</text>
<text text-anchor="start" x="5436" y="-120.8" font-family="Times,serif" font-size="14.00">damage :character varying</text>
<text text-anchor="start" x="5436" y="-105.8" font-family="Times,serif" font-size="14.00">range :character varying</text>
<text text-anchor="start" x="5436" y="-90.8" font-family="Times,serif" font-size="14.00">weight :character varying</text>
<text text-anchor="start" x="5436" y="-75.8" font-family="Times,serif" font-size="14.00">weapon_properties :character varying</text>
<text text-anchor="start" x="5436" y="-60.8" font-family="Times,serif" font-size="14.00">created_at :timestamp(6) without time zone</text>
<text text-anchor="start" x="5436" y="-45.8" font-family="Times,serif" font-size="14.00">updated_at :timestamp(6) without time zone</text>
</g>
</g>
</svg>
