<?xml version="1.0" encoding="UTF-8" standalone="no"?>
<!DOCTYPE svg PUBLIC "-//W3C//DTD SVG 1.1//EN"
 "http://www.w3.org/Graphics/SVG/1.1/DTD/svg11.dtd">
<!-- Generated by graphviz version 2.43.0 (0)
 -->
<!-- Title: models_diagram Pages: 1 -->
<svg width="3003pt" height="230pt"
 viewBox="0.00 0.00 3002.73 230.00" xmlns="http://www.w3.org/2000/svg" xmlns:xlink="http://www.w3.org/1999/xlink">
<g id="graph0" class="graph" transform="scale(1 1) rotate(0) translate(4 226)">
<title>models_diagram</title>
<polygon fill="transparent" stroke="transparent" points="-4,4 -4,-226 2998.73,-226 2998.73,4 -4,4"/>
<!-- _diagram_info -->
<g id="node1" class="node">
<title>_diagram_info</title>
<text text-anchor="start" x="1106.69" y="-207.6" font-family="Times,serif" font-size="13.00">Models diagram</text>
<text text-anchor="start" x="1106.69" y="-193.6" font-family="Times,serif" font-size="13.00">Date: Aug 19 2020 &#45; 11:15</text>
<text text-anchor="start" x="1106.69" y="-179.6" font-family="Times,serif" font-size="13.00">Migration version: 20200819170057</text>
<text text-anchor="start" x="1106.69" y="-165.6" font-family="Times,serif" font-size="13.00">Generated by RailRoady 1.5.3</text>
<text text-anchor="start" x="1106.69" y="-151.6" font-family="Times,serif" font-size="13.00">http://railroady.prestonlee.com</text>
</g>
<!-- AbilityScore -->
<g id="node2" class="node">
<title>AbilityScore</title>
<ellipse fill="none" stroke="black" cx="935.19" cy="-90" rx="67.69" ry="18"/>
<text text-anchor="middle" x="935.19" y="-86.3" font-family="Times,serif" font-size="14.00">AbilityScore</text>
</g>
<!-- CharactersAbilityScore -->
<g id="node6" class="node">
<title>CharactersAbilityScore</title>
<ellipse fill="none" stroke="black" cx="801.19" cy="-18" rx="118.08" ry="18"/>
<text text-anchor="middle" x="801.19" y="-14.3" font-family="Times,serif" font-size="14.00">CharactersAbilityScore</text>
</g>
<!-- AbilityScore&#45;&gt;CharactersAbilityScore -->
<g id="edge1" class="edge">
<title>AbilityScore&#45;&gt;CharactersAbilityScore</title>
<path fill="none" stroke="#b7caa3" d="M898.45,-69.81C880.95,-60.66 859.96,-49.7 841.97,-40.3"/>
<ellipse fill="none" stroke="#b7caa3" cx="902.24" cy="-71.79" rx="4" ry="4"/>
<polygon fill="#b7caa3" stroke="#b7caa3" points="841.73,-40.18 834.95,-31.56 837.3,-37.86 832.87,-35.55 832.87,-35.55 832.87,-35.55 837.3,-37.86 830.78,-39.54 841.73,-40.18 841.73,-40.18"/>
</g>
<!-- ApplicationRecord -->
<g id="node3" class="node">
<title>ApplicationRecord</title>
<ellipse fill="none" stroke="black" cx="2899.19" cy="-183" rx="95.58" ry="18"/>
<text text-anchor="middle" x="2899.19" y="-179.3" font-family="Times,serif" font-size="14.00">ApplicationRecord</text>
</g>
<!-- Armor -->
<g id="node4" class="node">
<title>Armor</title>
<ellipse fill="none" stroke="black" cx="1467.19" cy="-90" rx="40.09" ry="18"/>
<text text-anchor="middle" x="1467.19" y="-86.3" font-family="Times,serif" font-size="14.00">Armor</text>
</g>
<!-- CharactersArmor -->
<g id="node7" class="node">
<title>CharactersArmor</title>
<ellipse fill="none" stroke="black" cx="1459.19" cy="-18" rx="90.98" ry="18"/>
<text text-anchor="middle" x="1459.19" y="-14.3" font-family="Times,serif" font-size="14.00">CharactersArmor</text>
</g>
<!-- Armor&#45;&gt;CharactersArmor -->
<g id="edge2" class="edge">
<title>Armor&#45;&gt;CharactersArmor</title>
<path fill="none" stroke="#615cd5" d="M1464.29,-63.64C1463.64,-57.92 1462.94,-51.83 1462.28,-46.04"/>
<ellipse fill="none" stroke="#615cd5" cx="1464.76" cy="-67.72" rx="4" ry="4"/>
<polygon fill="#615cd5" stroke="#615cd5" points="1462.28,-46.04 1465.62,-35.59 1461.71,-41.07 1461.15,-36.1 1461.15,-36.1 1461.15,-36.1 1461.71,-41.07 1456.67,-36.62 1462.28,-46.04 1462.28,-46.04"/>
</g>
<!-- Character -->
<g id="node5" class="node">
<title>Character</title>
<ellipse fill="none" stroke="black" cx="1433.19" cy="-183" rx="57.39" ry="18"/>
<text text-anchor="middle" x="1433.19" y="-179.3" font-family="Times,serif" font-size="14.00">Character</text>
</g>
<!-- Character&#45;&gt;AbilityScore -->
<g id="edge16" class="edge">
<title>Character&#45;&gt;AbilityScore</title>
<path fill="none" stroke="#482a8f" d="M1402.26,-161C1391.31,-154.52 1378.61,-148.03 1366.19,-144 1229.64,-99.69 1187.49,-126.97 1045.19,-108 1031.09,-106.12 1016,-103.92 1001.65,-101.73"/>
<polygon fill="#482a8f" stroke="#482a8f" points="1402.49,-161.14 1408.64,-170.22 1406.75,-163.76 1411,-166.39 1411,-166.39 1411,-166.39 1406.75,-163.76 1413.36,-162.55 1402.49,-161.14 1402.49,-161.14"/>
<polygon fill="#482a8f" stroke="#482a8f" points="1001.25,-101.67 992.05,-95.7 996.31,-100.9 991.37,-100.14 991.37,-100.14 991.37,-100.14 996.31,-100.9 990.68,-104.59 1001.25,-101.67 1001.25,-101.67"/>
</g>
<!-- Character&#45;&gt;Armor -->
<g id="edge25" class="edge">
<title>Character&#45;&gt;Armor</title>
<path fill="none" stroke="#c1266f" d="M1443.12,-155.43C1447.58,-143.48 1452.84,-129.41 1457.3,-117.47"/>
<polygon fill="#c1266f" stroke="#c1266f" points="1443.09,-155.52 1435.37,-163.31 1441.34,-160.2 1439.59,-164.88 1439.59,-164.88 1439.59,-164.88 1441.34,-160.2 1443.8,-166.46 1443.09,-155.52 1443.09,-155.52"/>
<polygon fill="#c1266f" stroke="#c1266f" points="1457.32,-117.41 1465.04,-109.61 1459.07,-112.72 1460.82,-108.04 1460.82,-108.04 1460.82,-108.04 1459.07,-112.72 1456.61,-106.46 1457.32,-117.41 1457.32,-117.41"/>
</g>
<!-- Character&#45;&gt;CharactersAbilityScore -->
<g id="edge3" class="edge">
<title>Character&#45;&gt;CharactersAbilityScore</title>
<path fill="none" stroke="#596e45" d="M1404.57,-162.04C1393.15,-155.09 1379.55,-148.03 1366.19,-144 1257.85,-111.28 955.49,-165.79 858.19,-108 834.77,-94.09 819.34,-66.37 810.51,-45.55"/>
<ellipse fill="none" stroke="#596e45" cx="1408" cy="-164.19" rx="4" ry="4"/>
<polygon fill="#596e45" stroke="#596e45" points="810.51,-45.54 810.99,-34.59 808.66,-40.9 806.81,-36.25 806.81,-36.25 806.81,-36.25 808.66,-40.9 802.63,-37.92 810.51,-45.54 810.51,-45.54"/>
</g>
<!-- Character&#45;&gt;CharactersArmor -->
<g id="edge10" class="edge">
<title>Character&#45;&gt;CharactersArmor</title>
<path fill="none" stroke="#047a0c" d="M1423.39,-156.94C1415.98,-134.22 1408.59,-100.1 1418.19,-72 1421.69,-61.76 1428.06,-51.97 1434.75,-43.65"/>
<ellipse fill="none" stroke="#047a0c" cx="1424.78" cy="-160.98" rx="4" ry="4"/>
<polygon fill="#047a0c" stroke="#047a0c" points="1434.93,-43.43 1444.86,-38.79 1438.19,-39.64 1441.45,-35.85 1441.45,-35.85 1441.45,-35.85 1438.19,-39.64 1438.04,-32.92 1434.93,-43.43 1434.93,-43.43"/>
</g>
<!-- CharactersCharClass -->
<g id="node8" class="node">
<title>CharactersCharClass</title>
<ellipse fill="none" stroke="black" cx="109.19" cy="-18" rx="109.38" ry="18"/>
<text text-anchor="middle" x="109.19" y="-14.3" font-family="Times,serif" font-size="14.00">CharactersCharClass</text>
</g>
<!-- Character&#45;&gt;CharactersCharClass -->
<g id="edge6" class="edge">
<title>Character&#45;&gt;CharactersCharClass</title>
<path fill="none" stroke="#093a61" d="M1404.93,-161.92C1393.46,-154.89 1379.73,-147.79 1366.19,-144 1239.88,-108.61 304.64,-164.35 186.19,-108 158.39,-94.77 136.63,-66.28 123.44,-45.07"/>
<ellipse fill="none" stroke="#093a61" cx="1408.38" cy="-164.12" rx="4" ry="4"/>
<polygon fill="#093a61" stroke="#093a61" points="123.28,-44.8 122.02,-33.91 120.72,-40.51 118.16,-36.21 118.16,-36.21 118.16,-36.21 120.72,-40.51 114.29,-38.52 123.28,-44.8 123.28,-44.8"/>
</g>
<!-- CharactersFeature -->
<g id="node9" class="node">
<title>CharactersFeature</title>
<ellipse fill="none" stroke="black" cx="334.19" cy="-18" rx="98.28" ry="18"/>
<text text-anchor="middle" x="334.19" y="-14.3" font-family="Times,serif" font-size="14.00">CharactersFeature</text>
</g>
<!-- Character&#45;&gt;CharactersFeature -->
<g id="edge13" class="edge">
<title>Character&#45;&gt;CharactersFeature</title>
<path fill="none" stroke="#dafc86" d="M1404.64,-161.81C1393.22,-154.83 1379.61,-147.81 1366.19,-144 1162.98,-86.25 608.04,-196.47 416.19,-108 387.31,-94.68 363.91,-66 349.61,-44.77"/>
<ellipse fill="none" stroke="#dafc86" cx="1408.06" cy="-163.98" rx="4" ry="4"/>
<polygon fill="#dafc86" stroke="#dafc86" points="349.49,-44.59 347.83,-33.75 346.77,-40.39 344.05,-36.2 344.05,-36.2 344.05,-36.2 346.77,-40.39 340.28,-38.65 349.49,-44.59 349.49,-44.59"/>
</g>
<!-- CharactersLanguage -->
<g id="node10" class="node">
<title>CharactersLanguage</title>
<ellipse fill="none" stroke="black" cx="557.19" cy="-18" rx="107.48" ry="18"/>
<text text-anchor="middle" x="557.19" y="-14.3" font-family="Times,serif" font-size="14.00">CharactersLanguage</text>
</g>
<!-- Character&#45;&gt;CharactersLanguage -->
<g id="edge5" class="edge">
<title>Character&#45;&gt;CharactersLanguage</title>
<path fill="none" stroke="#19ef9a" d="M1404.62,-161.89C1393.2,-154.92 1379.59,-147.89 1366.19,-144 1208.5,-98.26 774.35,-182.81 628.19,-108 601.68,-94.43 581.77,-65.99 569.89,-44.9"/>
<ellipse fill="none" stroke="#19ef9a" cx="1408.04" cy="-164.05" rx="4" ry="4"/>
<polygon fill="#19ef9a" stroke="#19ef9a" points="569.88,-44.89 569.1,-33.95 567.51,-40.49 565.14,-36.09 565.14,-36.09 565.14,-36.09 567.51,-40.49 561.18,-38.22 569.88,-44.89 569.88,-44.89"/>
</g>
<!-- CharactersProficiency -->
<g id="node11" class="node">
<title>CharactersProficiency</title>
<ellipse fill="none" stroke="black" cx="1050.19" cy="-18" rx="113.18" ry="18"/>
<text text-anchor="middle" x="1050.19" y="-14.3" font-family="Times,serif" font-size="14.00">CharactersProficiency</text>
</g>
<!-- Character&#45;&gt;CharactersProficiency -->
<g id="edge4" class="edge">
<title>Character&#45;&gt;CharactersProficiency</title>
<path fill="none" stroke="#1e2d25" d="M1403.57,-161.94C1392.31,-155.21 1379.09,-148.32 1366.19,-144 1249.73,-104.98 1191.42,-180.39 1092.19,-108 1072.09,-93.34 1061.27,-66.56 1055.67,-46.19"/>
<ellipse fill="none" stroke="#1e2d25" cx="1407.26" cy="-164.21" rx="4" ry="4"/>
<polygon fill="#1e2d25" stroke="#1e2d25" points="1055.61,-45.93 1057.57,-35.14 1054.4,-41.08 1053.2,-36.22 1053.2,-36.22 1053.2,-36.22 1054.4,-41.08 1048.83,-37.31 1055.61,-45.93 1055.61,-45.93"/>
</g>
<!-- CharactersRace -->
<g id="node12" class="node">
<title>CharactersRace</title>
<ellipse fill="none" stroke="black" cx="1266.19" cy="-18" rx="84.49" ry="18"/>
<text text-anchor="middle" x="1266.19" y="-14.3" font-family="Times,serif" font-size="14.00">CharactersRace</text>
</g>
<!-- Character&#45;&gt;CharactersRace -->
<g id="edge8" class="edge">
<title>Character&#45;&gt;CharactersRace</title>
<path fill="none" stroke="#e5cba3" d="M1400.05,-162.8C1389.31,-156.68 1377.3,-149.96 1366.19,-144 1335.02,-127.27 1318.21,-134.87 1295.19,-108 1280.29,-90.61 1273.01,-65.4 1269.47,-46.25"/>
<ellipse fill="none" stroke="#e5cba3" cx="1403.78" cy="-164.93" rx="4" ry="4"/>
<polygon fill="#e5cba3" stroke="#e5cba3" points="1269.46,-46.19 1272.31,-35.6 1268.67,-41.25 1267.87,-36.32 1267.87,-36.32 1267.87,-36.32 1268.67,-41.25 1263.42,-37.04 1269.46,-46.19 1269.46,-46.19"/>
</g>
<!-- CharactersSkill -->
<g id="node13" class="node">
<title>CharactersSkill</title>
<ellipse fill="none" stroke="black" cx="1651.19" cy="-18" rx="82.59" ry="18"/>
<text text-anchor="middle" x="1651.19" y="-14.3" font-family="Times,serif" font-size="14.00">CharactersSkill</text>
</g>
<!-- Character&#45;&gt;CharactersSkill -->
<g id="edge15" class="edge">
<title>Character&#45;&gt;CharactersSkill</title>
<path fill="none" stroke="#33ab59" d="M1460.91,-161.28C1501.91,-130.62 1578.45,-73.39 1620.89,-41.65"/>
<ellipse fill="none" stroke="#33ab59" cx="1457.69" cy="-163.68" rx="4" ry="4"/>
<polygon fill="#33ab59" stroke="#33ab59" points="1621.15,-41.46 1631.85,-39.08 1625.15,-38.47 1629.16,-35.47 1629.16,-35.47 1629.16,-35.47 1625.15,-38.47 1626.46,-31.87 1621.15,-41.46 1621.15,-41.46"/>
</g>
<!-- CharactersSpell -->
<g id="node14" class="node">
<title>CharactersSpell</title>
<ellipse fill="none" stroke="black" cx="2730.19" cy="-18" rx="85.29" ry="18"/>
<text text-anchor="middle" x="2730.19" y="-14.3" font-family="Times,serif" font-size="14.00">CharactersSpell</text>
</g>
<!-- Character&#45;&gt;CharactersSpell -->
<g id="edge11" class="edge">
<title>Character&#45;&gt;CharactersSpell</title>
<path fill="none" stroke="#bcfdd6" d="M1498.52,-181.51C1708.94,-179.33 2367.13,-167.78 2570.19,-108 2618.83,-93.68 2668.97,-62.66 2699.86,-41.3"/>
<ellipse fill="none" stroke="#bcfdd6" cx="1494.33" cy="-181.55" rx="4" ry="4"/>
<polygon fill="#bcfdd6" stroke="#bcfdd6" points="2699.86,-41.3 2710.63,-39.24 2703.95,-38.43 2708.04,-35.55 2708.04,-35.55 2708.04,-35.55 2703.95,-38.43 2705.46,-31.87 2699.86,-41.3 2699.86,-41.3"/>
</g>
<!-- CharactersSubrace -->
<g id="node15" class="node">
<title>CharactersSubrace</title>
<ellipse fill="none" stroke="black" cx="1852.19" cy="-18" rx="100.18" ry="18"/>
<text text-anchor="middle" x="1852.19" y="-14.3" font-family="Times,serif" font-size="14.00">CharactersSubrace</text>
</g>
<!-- Character&#45;&gt;CharactersSubrace -->
<g id="edge14" class="edge">
<title>Character&#45;&gt;CharactersSubrace</title>
<path fill="none" stroke="#a992ef" d="M1485.65,-169.56C1536.75,-156.72 1616.15,-134.81 1682.19,-108 1730.02,-88.59 1782.22,-60.07 1815.98,-40.59"/>
<ellipse fill="none" stroke="#a992ef" cx="1481.58" cy="-170.58" rx="4" ry="4"/>
<polygon fill="#a992ef" stroke="#a992ef" points="1816.36,-40.37 1827.26,-39.23 1820.68,-37.86 1825,-35.34 1825,-35.34 1825,-35.34 1820.68,-37.86 1822.74,-31.45 1816.36,-40.37 1816.36,-40.37"/>
</g>
<!-- CharactersSubCharClass -->
<g id="node16" class="node">
<title>CharactersSubCharClass</title>
<ellipse fill="none" stroke="black" cx="2097.19" cy="-18" rx="127.28" ry="18"/>
<text text-anchor="middle" x="2097.19" y="-14.3" font-family="Times,serif" font-size="14.00">CharactersSubCharClass</text>
</g>
<!-- Character&#45;&gt;CharactersSubCharClass -->
<g id="edge7" class="edge">
<title>Character&#45;&gt;CharactersSubCharClass</title>
<path fill="none" stroke="#69bd94" d="M1496.37,-177.17C1586.75,-169.09 1757.46,-149.46 1897.19,-108 1955.04,-90.84 2018.06,-60.73 2057.59,-40.34"/>
<ellipse fill="none" stroke="#69bd94" cx="1492.13" cy="-177.54" rx="4" ry="4"/>
<polygon fill="#69bd94" stroke="#69bd94" points="2057.76,-40.25 2068.71,-39.62 2062.19,-37.94 2066.63,-35.63 2066.63,-35.63 2066.63,-35.63 2062.19,-37.94 2064.55,-31.64 2057.76,-40.25 2057.76,-40.25"/>
</g>
<!-- CharactersTrait -->
<g id="node17" class="node">
<title>CharactersTrait</title>
<ellipse fill="none" stroke="black" cx="2327.19" cy="-18" rx="84.49" ry="18"/>
<text text-anchor="middle" x="2327.19" y="-14.3" font-family="Times,serif" font-size="14.00">CharactersTrait</text>
</g>
<!-- Character&#45;&gt;CharactersTrait -->
<g id="edge12" class="edge">
<title>Character&#45;&gt;CharactersTrait</title>
<path fill="none" stroke="#c4fafe" d="M1497.3,-178.9C1652.28,-170.87 2043.67,-147.25 2168.19,-108 2215.97,-92.94 2265.48,-62.45 2296.3,-41.39"/>
<ellipse fill="none" stroke="#c4fafe" cx="1493.21" cy="-179.11" rx="4" ry="4"/>
<polygon fill="#c4fafe" stroke="#c4fafe" points="2296.64,-41.15 2307.42,-39.15 2300.75,-38.3 2304.86,-35.45 2304.86,-35.45 2304.86,-35.45 2300.75,-38.3 2302.29,-31.75 2296.64,-41.15 2296.64,-41.15"/>
</g>
<!-- CharactersWeapon -->
<g id="node18" class="node">
<title>CharactersWeapon</title>
<ellipse fill="none" stroke="black" cx="2528.19" cy="-18" rx="98.58" ry="18"/>
<text text-anchor="middle" x="2528.19" y="-14.3" font-family="Times,serif" font-size="14.00">CharactersWeapon</text>
</g>
<!-- Character&#45;&gt;CharactersWeapon -->
<g id="edge9" class="edge">
<title>Character&#45;&gt;CharactersWeapon</title>
<path fill="none" stroke="#f67340" d="M1497.95,-180.11C1680.01,-174.26 2193.59,-154.05 2355.19,-108 2407.07,-93.21 2461.56,-62.23 2495.21,-41.02"/>
<ellipse fill="none" stroke="#f67340" cx="1493.79" cy="-180.24" rx="4" ry="4"/>
<polygon fill="#f67340" stroke="#f67340" points="2495.28,-40.97 2506.13,-39.38 2499.5,-38.28 2503.71,-35.59 2503.71,-35.59 2503.71,-35.59 2499.5,-38.28 2501.29,-31.79 2495.28,-40.97 2495.28,-40.97"/>
</g>
<!-- CharClass -->
<g id="node19" class="node">
<title>CharClass</title>
<ellipse fill="none" stroke="black" cx="253.19" cy="-90" rx="57.69" ry="18"/>
<text text-anchor="middle" x="253.19" y="-86.3" font-family="Times,serif" font-size="14.00">CharClass</text>
</g>
<!-- Character&#45;&gt;CharClass -->
<g id="edge20" class="edge">
<title>Character&#45;&gt;CharClass</title>
<path fill="none" stroke="#c0f7ee" d="M1403.28,-160.96C1392.15,-154.26 1379.09,-147.64 1366.19,-144 1146.22,-81.83 565.23,-134.5 338.19,-108 328.54,-106.87 318.35,-105.23 308.5,-103.41"/>
<polygon fill="#c0f7ee" stroke="#c0f7ee" points="1403.29,-160.96 1409.35,-170.1 1407.52,-163.63 1411.75,-166.3 1411.75,-166.3 1411.75,-166.3 1407.52,-163.63 1414.15,-162.49 1403.29,-160.96 1403.29,-160.96"/>
<polygon fill="#c0f7ee" stroke="#c0f7ee" points="308.23,-103.36 299.26,-97.04 303.32,-102.41 298.41,-101.46 298.41,-101.46 298.41,-101.46 303.32,-102.41 297.56,-105.88 308.23,-103.36 308.23,-103.36"/>
</g>
<!-- Feature -->
<g id="node20" class="node">
<title>Feature</title>
<ellipse fill="none" stroke="black" cx="472.19" cy="-90" rx="46.59" ry="18"/>
<text text-anchor="middle" x="472.19" y="-86.3" font-family="Times,serif" font-size="14.00">Feature</text>
</g>
<!-- Character&#45;&gt;Feature -->
<g id="edge28" class="edge">
<title>Character&#45;&gt;Feature</title>
<path fill="none" stroke="#fe13a7" d="M1402.67,-160.68C1391.67,-154.1 1378.84,-147.64 1366.19,-144 1195.83,-94.91 745.42,-127.34 569.19,-108 554,-106.33 537.59,-103.76 522.67,-101.11"/>
<polygon fill="#fe13a7" stroke="#fe13a7" points="1402.95,-160.86 1409.04,-169.98 1407.19,-163.51 1411.43,-166.16 1411.43,-166.16 1411.43,-166.16 1407.19,-163.51 1413.82,-162.35 1402.95,-160.86 1402.95,-160.86"/>
<polygon fill="#fe13a7" stroke="#fe13a7" points="522.45,-101.07 513.42,-94.85 517.53,-100.18 512.61,-99.28 512.61,-99.28 512.61,-99.28 517.53,-100.18 511.81,-103.71 522.45,-101.07 522.45,-101.07"/>
</g>
<!-- Language -->
<g id="node21" class="node">
<title>Language</title>
<ellipse fill="none" stroke="black" cx="693.19" cy="-90" rx="55.79" ry="18"/>
<text text-anchor="middle" x="693.19" y="-86.3" font-family="Times,serif" font-size="14.00">Language</text>
</g>
<!-- Character&#45;&gt;Language -->
<g id="edge19" class="edge">
<title>Character&#45;&gt;Language</title>
<path fill="none" stroke="#e6c38b" d="M1402.63,-160.81C1391.62,-154.25 1378.81,-147.76 1366.19,-144 1125.06,-72.1 1051.29,-135.59 801.19,-108 784.79,-106.19 767.06,-103.65 750.81,-101.08"/>
<polygon fill="#e6c38b" stroke="#e6c38b" points="1402.91,-160.99 1409.02,-170.1 1407.15,-163.63 1411.4,-166.28 1411.4,-166.28 1411.4,-166.28 1407.15,-163.63 1413.78,-162.46 1402.91,-160.99 1402.91,-160.99"/>
<polygon fill="#e6c38b" stroke="#e6c38b" points="750.78,-101.08 741.63,-95.04 745.85,-100.28 740.91,-99.49 740.91,-99.49 740.91,-99.49 745.85,-100.28 740.2,-103.93 750.78,-101.08 750.78,-101.08"/>
</g>
<!-- Proficiency -->
<g id="node23" class="node">
<title>Proficiency</title>
<ellipse fill="none" stroke="black" cx="1163.19" cy="-90" rx="61.99" ry="18"/>
<text text-anchor="middle" x="1163.19" y="-86.3" font-family="Times,serif" font-size="14.00">Proficiency</text>
</g>
<!-- Character&#45;&gt;Proficiency -->
<g id="edge18" class="edge">
<title>Character&#45;&gt;Proficiency</title>
<path fill="none" stroke="#6a0f18" d="M1400.83,-161.39C1390.1,-155.18 1377.9,-148.76 1366.19,-144 1319.89,-125.2 1264.92,-111.33 1223.86,-102.51"/>
<polygon fill="#6a0f18" stroke="#6a0f18" points="1400.86,-161.41 1407.15,-170.39 1405.16,-163.97 1409.45,-166.52 1409.45,-166.52 1409.45,-166.52 1405.16,-163.97 1411.75,-162.65 1400.86,-161.41 1400.86,-161.41"/>
<polygon fill="#6a0f18" stroke="#6a0f18" points="1223.79,-102.49 1214.93,-96.02 1218.89,-101.46 1214,-100.42 1214,-100.42 1214,-100.42 1218.89,-101.46 1213.07,-104.83 1223.79,-102.49 1223.79,-102.49"/>
</g>
<!-- Race -->
<g id="node24" class="node">
<title>Race</title>
<ellipse fill="none" stroke="black" cx="1337.19" cy="-90" rx="33.29" ry="18"/>
<text text-anchor="middle" x="1337.19" y="-86.3" font-family="Times,serif" font-size="14.00">Race</text>
</g>
<!-- Character&#45;&gt;Race -->
<g id="edge22" class="edge">
<title>Character&#45;&gt;Race</title>
<path fill="none" stroke="#0b71e1" d="M1408.42,-158.52C1393.65,-144.52 1375.02,-126.86 1360.51,-113.11"/>
<polygon fill="#0b71e1" stroke="#0b71e1" points="1408.77,-158.85 1412.93,-169 1412.4,-162.29 1416.03,-165.73 1416.03,-165.73 1416.03,-165.73 1412.4,-162.29 1419.12,-162.47 1408.77,-158.85 1408.77,-158.85"/>
<polygon fill="#0b71e1" stroke="#0b71e1" points="1360.19,-112.8 1356.03,-102.66 1356.56,-109.36 1352.93,-105.92 1352.93,-105.92 1352.93,-105.92 1356.56,-109.36 1349.84,-109.19 1360.19,-112.8 1360.19,-112.8"/>
</g>
<!-- Skill -->
<g id="node25" class="node">
<title>Skill</title>
<ellipse fill="none" stroke="black" cx="1642.19" cy="-90" rx="31.4" ry="18"/>
<text text-anchor="middle" x="1642.19" y="-86.3" font-family="Times,serif" font-size="14.00">Skill</text>
</g>
<!-- Character&#45;&gt;Skill -->
<g id="edge17" class="edge">
<title>Character&#45;&gt;Skill</title>
<path fill="none" stroke="#3eba23" d="M1474.71,-163.92C1514.09,-146.78 1572.49,-121.35 1608.9,-105.5"/>
<polygon fill="#3eba23" stroke="#3eba23" points="1474.56,-163.99 1463.59,-163.85 1469.97,-165.98 1465.39,-167.98 1465.39,-167.98 1465.39,-167.98 1469.97,-165.98 1467.18,-172.11 1474.56,-163.99 1474.56,-163.99"/>
<polygon fill="#3eba23" stroke="#3eba23" points="1608.93,-105.48 1619.9,-105.61 1613.52,-103.48 1618.1,-101.49 1618.1,-101.49 1618.1,-101.49 1613.52,-103.48 1616.3,-97.36 1608.93,-105.48 1608.93,-105.48"/>
</g>
<!-- Spell -->
<g id="node26" class="node">
<title>Spell</title>
<ellipse fill="none" stroke="black" cx="2716.19" cy="-90" rx="34.39" ry="18"/>
<text text-anchor="middle" x="2716.19" y="-86.3" font-family="Times,serif" font-size="14.00">Spell</text>
</g>
<!-- Character&#45;&gt;Spell -->
<g id="edge26" class="edge">
<title>Character&#45;&gt;Spell</title>
<path fill="none" stroke="#657776" d="M1500.49,-182.06C1684.85,-181.34 2213.13,-173.27 2646.19,-108 2656.1,-106.51 2666.67,-104.28 2676.51,-101.93"/>
<polygon fill="#657776" stroke="#657776" points="1500.41,-182.06 1490.39,-177.6 1495.41,-182.08 1490.41,-182.1 1490.41,-182.1 1490.41,-182.1 1495.41,-182.08 1490.42,-186.6 1500.41,-182.06 1500.41,-182.06"/>
<polygon fill="#657776" stroke="#657776" points="2676.74,-101.87 2687.53,-103.82 2681.59,-100.66 2686.45,-99.46 2686.45,-99.46 2686.45,-99.46 2681.59,-100.66 2685.36,-95.09 2676.74,-101.87 2676.74,-101.87"/>
</g>
<!-- Subrace -->
<g id="node27" class="node">
<title>Subrace</title>
<ellipse fill="none" stroke="black" cx="1839.19" cy="-90" rx="48.99" ry="18"/>
<text text-anchor="middle" x="1839.19" y="-86.3" font-family="Times,serif" font-size="14.00">Subrace</text>
</g>
<!-- Character&#45;&gt;Subrace -->
<g id="edge23" class="edge">
<title>Character&#45;&gt;Subrace</title>
<path fill="none" stroke="#17ec62" d="M1488.56,-169.59C1567.79,-151.83 1712.37,-119.43 1788.77,-102.3"/>
<polygon fill="#17ec62" stroke="#17ec62" points="1488.34,-169.64 1477.6,-167.43 1483.46,-170.73 1478.58,-171.83 1478.58,-171.83 1478.58,-171.83 1483.46,-170.73 1479.57,-176.22 1488.34,-169.64 1488.34,-169.64"/>
<polygon fill="#17ec62" stroke="#17ec62" points="1788.88,-102.28 1799.62,-104.48 1793.76,-101.18 1798.64,-100.09 1798.64,-100.09 1798.64,-100.09 1793.76,-101.18 1797.65,-95.7 1788.88,-102.28 1788.88,-102.28"/>
</g>
<!-- SubCharClass -->
<g id="node28" class="node">
<title>SubCharClass</title>
<ellipse fill="none" stroke="black" cx="2083.19" cy="-90" rx="76.09" ry="18"/>
<text text-anchor="middle" x="2083.19" y="-86.3" font-family="Times,serif" font-size="14.00">SubCharClass</text>
</g>
<!-- Character&#45;&gt;SubCharClass -->
<g id="edge21" class="edge">
<title>Character&#45;&gt;SubCharClass</title>
<path fill="none" stroke="#b2fae4" d="M1494.83,-173.85C1595.01,-160.54 1799.36,-133.1 1972.19,-108 1984.95,-106.15 1998.53,-104.12 2011.65,-102.12"/>
<polygon fill="#b2fae4" stroke="#b2fae4" points="1494.8,-173.86 1484.29,-170.71 1489.84,-174.52 1484.88,-175.17 1484.88,-175.17 1484.88,-175.17 1489.84,-174.52 1485.48,-179.64 1494.8,-173.86 1494.8,-173.86"/>
<polygon fill="#b2fae4" stroke="#b2fae4" points="2011.68,-102.12 2022.25,-105.06 2016.62,-101.37 2021.57,-100.61 2021.57,-100.61 2021.57,-100.61 2016.62,-101.37 2020.89,-96.16 2011.68,-102.12 2011.68,-102.12"/>
</g>
<!-- Trait -->
<g id="node29" class="node">
<title>Trait</title>
<ellipse fill="none" stroke="black" cx="2313.19" cy="-90" rx="33.29" ry="18"/>
<text text-anchor="middle" x="2313.19" y="-86.3" font-family="Times,serif" font-size="14.00">Trait</text>
</g>
<!-- Character&#45;&gt;Trait -->
<g id="edge27" class="edge">
<title>Character&#45;&gt;Trait</title>
<path fill="none" stroke="#7a3eaa" d="M1499.68,-179.33C1638.74,-172.99 1970.09,-154 2244.19,-108 2254.12,-106.33 2264.74,-104 2274.59,-101.6"/>
<polygon fill="#7a3eaa" stroke="#7a3eaa" points="1499.6,-179.33 1489.41,-175.28 1494.6,-179.55 1489.61,-179.78 1489.61,-179.78 1489.61,-179.78 1494.6,-179.55 1489.81,-184.27 1499.6,-179.33 1499.6,-179.33"/>
<polygon fill="#7a3eaa" stroke="#7a3eaa" points="2274.82,-101.54 2285.62,-103.45 2279.67,-100.31 2284.52,-99.09 2284.52,-99.09 2284.52,-99.09 2279.67,-100.31 2283.42,-94.73 2274.82,-101.54 2274.82,-101.54"/>
</g>
<!-- Weapon -->
<g id="node30" class="node">
<title>Weapon</title>
<ellipse fill="none" stroke="black" cx="2514.19" cy="-90" rx="47.39" ry="18"/>
<text text-anchor="middle" x="2514.19" y="-86.3" font-family="Times,serif" font-size="14.00">Weapon</text>
</g>
<!-- Character&#45;&gt;Weapon -->
<g id="edge24" class="edge">
<title>Character&#45;&gt;Weapon</title>
<path fill="none" stroke="#fbfe99" d="M1500.24,-179.99C1661.37,-174.52 2082.83,-156.39 2431.19,-108 2442.12,-106.48 2453.78,-104.39 2464.79,-102.2"/>
<polygon fill="#fbfe99" stroke="#fbfe99" points="1500,-180 1489.86,-175.84 1495,-180.17 1490.01,-180.33 1490.01,-180.33 1490.01,-180.33 1495,-180.17 1490.16,-184.83 1500,-180 1500,-180"/>
<polygon fill="#fbfe99" stroke="#fbfe99" points="2464.89,-102.18 2475.59,-104.58 2469.79,-101.17 2474.68,-100.17 2474.68,-100.17 2474.68,-100.17 2469.79,-101.17 2473.78,-95.76 2464.89,-102.18 2464.89,-102.18"/>
</g>
<!-- CharClass&#45;&gt;CharactersCharClass -->
<g id="edge29" class="edge">
<title>CharClass&#45;&gt;CharactersCharClass</title>
<path fill="none" stroke="#527ab2" d="M215.91,-70.88C196.22,-61.31 171.98,-49.52 151.58,-39.61"/>
<ellipse fill="none" stroke="#527ab2" cx="219.76" cy="-72.75" rx="4" ry="4"/>
<polygon fill="#527ab2" stroke="#527ab2" points="151.51,-39.57 144.48,-31.15 147.01,-37.38 142.51,-35.2 142.51,-35.2 142.51,-35.2 147.01,-37.38 140.54,-39.25 151.51,-39.57 151.51,-39.57"/>
</g>
<!-- Feature&#45;&gt;CharactersFeature -->
<g id="edge30" class="edge">
<title>Feature&#45;&gt;CharactersFeature</title>
<path fill="none" stroke="#b8d1dc" d="M437.76,-71.53C418.84,-61.94 395.26,-49.98 375.38,-39.89"/>
<ellipse fill="none" stroke="#b8d1dc" cx="441.36" cy="-73.36" rx="4" ry="4"/>
<polygon fill="#b8d1dc" stroke="#b8d1dc" points="375.16,-39.78 368.28,-31.24 370.7,-37.52 366.24,-35.26 366.24,-35.26 366.24,-35.26 370.7,-37.52 364.2,-39.27 375.16,-39.78 375.16,-39.78"/>
</g>
<!-- Language&#45;&gt;CharactersLanguage -->
<g id="edge31" class="edge">
<title>Language&#45;&gt;CharactersLanguage</title>
<path fill="none" stroke="#f8ab69" d="M657.42,-70.59C639.17,-61.19 616.89,-49.73 597.98,-39.99"/>
<ellipse fill="none" stroke="#f8ab69" cx="661.12" cy="-72.5" rx="4" ry="4"/>
<polygon fill="#f8ab69" stroke="#f8ab69" points="597.88,-39.95 591.05,-31.37 593.44,-37.66 588.99,-35.37 588.99,-35.37 588.99,-35.37 593.44,-37.66 586.93,-39.37 597.88,-39.95 597.88,-39.95"/>
</g>
<!-- MagicSchool -->
<g id="node22" class="node">
<title>MagicSchool</title>
<ellipse fill="none" stroke="black" cx="2716.19" cy="-183" rx="69.59" ry="18"/>
<text text-anchor="middle" x="2716.19" y="-179.3" font-family="Times,serif" font-size="14.00">MagicSchool</text>
</g>
<!-- MagicSchool&#45;&gt;Spell -->
<g id="edge32" class="edge">
<title>MagicSchool&#45;&gt;Spell</title>
<path fill="none" stroke="#057fc5" d="M2716.19,-156.73C2716.19,-144.72 2716.19,-130.36 2716.19,-118.13"/>
<ellipse fill="none" stroke="#057fc5" cx="2716.19" cy="-160.88" rx="4" ry="4"/>
<polygon fill="#057fc5" stroke="#057fc5" points="2716.19,-118.04 2720.69,-108.04 2716.19,-113.04 2716.19,-108.04 2716.19,-108.04 2716.19,-108.04 2716.19,-113.04 2711.69,-108.04 2716.19,-118.04 2716.19,-118.04"/>
</g>
<!-- Proficiency&#45;&gt;CharactersProficiency -->
<g id="edge33" class="edge">
<title>Proficiency&#45;&gt;CharactersProficiency</title>
<path fill="none" stroke="#dee9a1" d="M1131.06,-69.1C1116.96,-60.36 1100.36,-50.08 1085.87,-41.1"/>
<ellipse fill="none" stroke="#dee9a1" cx="1134.71" cy="-71.36" rx="4" ry="4"/>
<polygon fill="#dee9a1" stroke="#dee9a1" points="1085.67,-40.98 1079.54,-31.89 1081.42,-38.35 1077.17,-35.71 1077.17,-35.71 1077.17,-35.71 1081.42,-38.35 1074.8,-39.54 1085.67,-40.98 1085.67,-40.98"/>
</g>
<!-- Race&#45;&gt;CharactersRace -->
<g id="edge34" class="edge">
<title>Race&#45;&gt;CharactersRace</title>
<path fill="none" stroke="#f9db63" d="M1315.91,-68.02C1307.93,-60.15 1298.8,-51.15 1290.57,-43.03"/>
<ellipse fill="none" stroke="#f9db63" cx="1318.94" cy="-71" rx="4" ry="4"/>
<polygon fill="#f9db63" stroke="#f9db63" points="1290.43,-42.9 1286.47,-32.67 1286.87,-39.39 1283.31,-35.88 1283.31,-35.88 1283.31,-35.88 1286.87,-39.39 1280.15,-39.08 1290.43,-42.9 1290.43,-42.9"/>
</g>
<!-- Skill&#45;&gt;CharactersSkill -->
<g id="edge35" class="edge">
<title>Skill&#45;&gt;CharactersSkill</title>
<path fill="none" stroke="#84281c" d="M1645.45,-63.64C1646.19,-57.92 1646.97,-51.83 1647.71,-46.04"/>
<ellipse fill="none" stroke="#84281c" cx="1644.93" cy="-67.73" rx="4" ry="4"/>
<polygon fill="#84281c" stroke="#84281c" points="1647.72,-46.02 1653.45,-36.68 1648.35,-41.06 1648.99,-36.1 1648.99,-36.1 1648.99,-36.1 1648.35,-41.06 1644.53,-35.53 1647.72,-46.02 1647.72,-46.02"/>
</g>
<!-- Spell&#45;&gt;CharactersSpell -->
<g id="edge36" class="edge">
<title>Spell&#45;&gt;CharactersSpell</title>
<path fill="none" stroke="#9cd44c" d="M2721.19,-63.99C2722.34,-58.25 2723.57,-52.12 2724.73,-46.29"/>
<ellipse fill="none" stroke="#9cd44c" cx="2720.36" cy="-68.13" rx="4" ry="4"/>
<polygon fill="#9cd44c" stroke="#9cd44c" points="2724.77,-46.08 2731.15,-37.16 2725.75,-41.18 2726.74,-36.28 2726.74,-36.28 2726.74,-36.28 2725.75,-41.18 2722.32,-35.39 2724.77,-46.08 2724.77,-46.08"/>
</g>
<!-- Subrace&#45;&gt;CharactersSubrace -->
<g id="edge37" class="edge">
<title>Subrace&#45;&gt;CharactersSubrace</title>
<path fill="none" stroke="#5fb6a2" d="M1843.9,-63.64C1844.96,-57.92 1846.09,-51.83 1847.17,-46.04"/>
<ellipse fill="none" stroke="#5fb6a2" cx="1843.13" cy="-67.76" rx="4" ry="4"/>
<polygon fill="#5fb6a2" stroke="#5fb6a2" points="1847.19,-45.94 1853.44,-36.93 1848.1,-41.02 1849.01,-36.1 1849.01,-36.1 1849.01,-36.1 1848.1,-41.02 1844.59,-35.28 1847.19,-45.94 1847.19,-45.94"/>
</g>
<!-- SubCharClass&#45;&gt;CharactersSubCharClass -->
<g id="edge38" class="edge">
<title>SubCharClass&#45;&gt;CharactersSubCharClass</title>
<path fill="none" stroke="#64ed4f" d="M2088.26,-63.64C2089.41,-57.92 2090.62,-51.83 2091.78,-46.04"/>
<ellipse fill="none" stroke="#64ed4f" cx="2087.44" cy="-67.77" rx="4" ry="4"/>
<polygon fill="#64ed4f" stroke="#64ed4f" points="2091.81,-45.91 2098.18,-36.99 2092.79,-41.01 2093.77,-36.1 2093.77,-36.1 2093.77,-36.1 2092.79,-41.01 2089.36,-35.22 2091.81,-45.91 2091.81,-45.91"/>
</g>
<!-- Trait&#45;&gt;CharactersTrait -->
<g id="edge39" class="edge">
<title>Trait&#45;&gt;CharactersTrait</title>
<path fill="none" stroke="#9ac2e2" d="M2318.19,-63.99C2319.34,-58.25 2320.57,-52.12 2321.73,-46.29"/>
<ellipse fill="none" stroke="#9ac2e2" cx="2317.36" cy="-68.13" rx="4" ry="4"/>
<polygon fill="#9ac2e2" stroke="#9ac2e2" points="2321.77,-46.08 2328.15,-37.16 2322.75,-41.18 2323.74,-36.28 2323.74,-36.28 2323.74,-36.28 2322.75,-41.18 2319.32,-35.39 2321.77,-46.08 2321.77,-46.08"/>
</g>
<!-- Weapon&#45;&gt;CharactersWeapon -->
<g id="edge40" class="edge">
<title>Weapon&#45;&gt;CharactersWeapon</title>
<path fill="none" stroke="#03110b" d="M2519.26,-63.64C2520.41,-57.92 2521.62,-51.83 2522.78,-46.04"/>
<ellipse fill="none" stroke="#03110b" cx="2518.44" cy="-67.77" rx="4" ry="4"/>
<polygon fill="#03110b" stroke="#03110b" points="2522.81,-45.91 2529.18,-36.99 2523.79,-41.01 2524.77,-36.1 2524.77,-36.1 2524.77,-36.1 2523.79,-41.01 2520.36,-35.22 2522.81,-45.91 2522.81,-45.91"/>
</g>
</g>
</svg>
